<svg width="1200" height="900" viewBox="0 0 1200 900" fill="none" xmlns="http://www.w3.org/2000/svg">
  <rect width="1200" height="900" rx="40" fill="#F8FAFC" />
  <rect x="120" y="260" width="960" height="360" rx="32" fill="#E2E8F0" />
  <rect x="220" y="330" width="760" height="220" rx="20" fill="#FFFFFF" />
  <rect x="320" y="400" width="160" height="120" rx="16" fill="#CBD5E1" />
  <rect x="720" y="400" width="160" height="120" rx="16" fill="#CBD5E1" />
  <rect x="520" y="420" width="160" height="120" rx="16" fill="#94A3B8" />
  <circle cx="900" cy="200" r="80" fill="#F59E0B" />
  <path d="M160 620C240 520 420 520 500 620C580 720 760 720 840 620C920 520 1100 520 1080 620V900H120V620Z" fill="#A7F3D0" />
  <path d="M320 240H880V280H320V240Z" fill="#0F172A" opacity="0.2" />
  <text x="220" y="540" fill="#1E293B" font-family="Inter, sans-serif" font-size="48" font-weight="600">Holy Faith School</text>
</svg>
